<svg width="135" height="135" viewBox="0 0 135 135" fill="none" xmlns="http://www.w3.org/2000/svg">
<g opacity="0.2">
<path fill-rule="evenodd" clip-rule="evenodd" d="M103.419 33.7699C103.464 33.8654 103.578 34.1048 103.72 34.4065C103.824 34.3702 103.937 34.3302 104.094 34.2749C104.344 34.4171 104.85 34.3263 104.934 34.7727C105.009 35.1744 105.692 34.9954 105.556 35.5184C106.112 35.9626 106.121 36.6758 106.238 37.2574C106.345 37.7849 106.69 38.2322 106.647 38.826C106.609 39.3424 106.834 39.8782 106.943 40.4073C106.769 40.5983 106.606 40.7752 106.382 41.0209C106.56 41.1139 106.693 41.1838 106.903 41.2938C106.911 41.4281 106.925 41.6494 106.939 41.8893C107.223 42.0333 107.489 42.1691 107.802 42.3282C107.817 42.5622 107.832 42.7946 107.849 43.0483C107.976 42.9884 108.094 42.932 108.296 42.8362C108.246 43.1272 108.206 43.3665 108.163 43.618C108.225 43.623 108.322 43.6305 108.473 43.6422C108.158 44.3298 107.263 44.327 106.927 45.0969C106.832 45.6846 107.081 46.4406 106.759 47.1335C106.635 47.4011 107.162 47.5924 106.784 47.8856C106.65 47.99 107.122 48.2859 106.768 48.4911C107.011 48.9436 106.841 49.3942 106.815 49.8587C106.793 50.2437 106.844 50.6663 106.917 51.0669C106.977 51.4006 107.023 51.7373 107.07 52.0735C107.112 52.3778 107.118 52.6909 107.197 52.9852C107.265 53.2359 107.544 53.4999 107.492 53.6957C107.422 53.9588 107.413 54.1771 107.602 54.4372C107.341 54.5033 107.181 54.5438 107.021 54.5843C106.861 55.0502 106.693 55.5091 105.999 55.438L105.204 54.6432C104.268 54.9047 103.347 55.2362 102.304 54.754C102.075 54.4805 101.596 54.2462 101.544 53.7098C100.491 53.3595 100.202 52.4602 99.9548 51.5366C99.6577 50.425 99.5908 49.2893 99.6635 48.1088C98.7424 47.9245 97.8423 47.7945 96.9734 47.5536C96.3757 47.3878 95.7205 47.2101 95.2718 46.7854C94.8071 46.3451 94.1924 46.0153 94.0034 45.2865C93.9184 44.9606 93.5051 44.7787 93.3696 44.3729C93.288 44.1291 93.1575 43.8981 93.1264 43.6172C93.1097 43.4656 92.9659 43.3279 92.7982 43.0492C92.8071 42.8087 92.9637 42.3401 92.8024 42.0483C92.5675 41.6247 93.1144 41.3287 92.7233 40.9498C92.9146 40.9234 92.9995 40.9118 93.1317 40.8934C93.2544 40.6674 93.3932 40.412 93.5384 40.1458C93.7555 40.213 93.9376 40.2691 94.1589 40.3376C94.281 40.7613 94.4145 41.2241 94.5678 41.756C94.9051 41.3448 95.1652 41.027 95.3876 40.7557C95.5892 40.7557 95.696 40.7555 95.8149 40.7555C95.912 41.0547 96.0106 41.3571 96.1408 41.756C96.4026 41.5431 96.6058 41.3776 96.8576 41.1724C97.0689 41.4964 97.2813 41.821 97.49 42.1402C97.4795 42.3229 97.4684 42.5206 97.457 42.7241C97.593 42.7241 97.6574 42.7324 97.6599 42.7227C97.7041 42.5692 97.7407 42.4131 97.7871 42.2246C97.9328 42.291 98.0228 42.3315 98.1391 42.384C98.0333 42.7069 97.9328 43.0139 97.8179 43.3637C97.9617 43.2921 98.0758 43.2352 98.2868 43.1297C98.2871 43.4909 98.2874 43.8115 98.2882 44.2299C98.7646 44.1738 99.1871 44.1244 99.6399 44.0714C100.083 43.7696 100.225 43.3132 100.265 42.7671C100.358 41.5045 100.592 40.2491 100.672 38.9934C100.753 37.7077 100.89 36.3907 100.57 35.0973C100.495 34.7946 100.559 34.4582 100.559 34.1147L101.356 33.318C101.454 33.3296 101.625 33.3499 101.8 33.3699C101.961 33.7055 102.128 34.0509 102.344 34.5001C102.519 34.1922 102.661 33.9423 102.846 33.617C102.956 33.6461 103.126 33.6917 103.419 33.7699" fill="black"/>
<path fill-rule="evenodd" clip-rule="evenodd" d="M71.3169 97.7629C71.1472 98.0846 71.0082 98.3492 70.828 98.691C70.7552 98.4911 70.7072 98.3592 70.6461 98.1921C70.2106 98.1041 69.7797 98.0663 69.4721 98.4778C69.3383 98.3995 69.2522 98.3489 69.1323 98.279L68.5068 98.9045C68.3819 98.9045 68.298 98.9289 68.2411 98.9003C67.8566 98.7074 67.4932 98.3845 67.0929 98.3317C66.5779 98.2643 66.4035 97.8673 66.1112 97.5955C65.8736 97.375 65.7314 97.048 65.5579 96.7618C64.9382 95.7379 64.4693 94.6438 64.1243 93.5025C63.9124 92.8004 63.742 92.0808 63.6207 91.3576C63.5021 90.6511 63.4699 89.9298 63.3972 89.1924C63.2492 89.2249 63.0832 89.2566 62.9197 89.2985C61.3392 89.7041 59.7298 89.8343 58.1032 89.8207C57.3356 89.8143 56.8139 89.2971 56.2248 88.9301C55.9888 88.7835 55.8156 88.5353 55.6138 88.3335C55.4292 87.7419 55.8064 87.2991 56.046 86.743C56.4161 86.8449 56.7964 86.9498 57.2248 87.0672C57.232 87.02 57.2445 86.9382 57.2667 86.791C57.3703 86.7907 57.5113 86.7491 57.6099 86.7966C58.2181 87.0883 58.8148 86.9498 59.4003 86.7541C60.5924 86.3565 61.7761 85.9362 63.044 85.4973C63.0327 85.0867 62.9086 84.5634 63.0365 84.1117C63.1543 83.6953 62.7409 83.2541 63.1984 82.8788C63.066 82.8652 62.9738 82.8557 62.8367 82.8418C62.875 82.6247 62.9138 82.4049 62.968 82.0987C62.8994 81.9163 62.795 81.6381 62.6926 81.3657C62.8139 81.2294 62.9266 81.1028 63.089 80.9204C62.9213 80.8993 62.8339 80.8885 62.6978 80.8713C62.9724 80.5029 62.6609 80.1486 62.6845 79.7675C62.7092 79.3646 62.601 78.9538 62.5438 78.4912C62.6218 78.4793 62.7031 78.4668 62.8583 78.4432C62.805 78.3111 62.7545 78.1867 62.6912 78.0307C62.79 78.0201 62.8811 78.0101 63.046 77.9929C62.6134 77.3622 62.4885 76.6342 62.4255 75.9305C62.3603 75.205 62.2031 74.4544 62.4788 73.6495C62.6023 73.6376 62.7678 73.6215 62.9549 73.6032C63.1515 74.2267 63.3511 74.84 63.1276 75.4915L63.7331 76.097C63.8114 75.9682 63.9213 75.8677 63.9027 75.8053C63.8269 75.554 63.7114 75.3147 63.6626 75.1964C63.7259 74.5401 63.7778 74.0041 63.8433 73.3278C64.1473 73.5896 64.3452 73.7609 64.5357 73.9246C64.4691 74.084 64.4183 74.2053 64.365 74.333C64.4208 74.3422 64.5127 74.3758 64.5249 74.3569C64.6709 74.1354 64.805 73.9058 64.9732 73.627C65.1481 73.6753 65.3611 73.7339 65.5754 73.7928C65.5801 73.8808 65.5854 73.9854 65.5912 74.0984C65.8422 74.2861 66.2994 74.2159 66.3466 74.6712C66.2336 74.677 66.1331 74.682 66.0301 74.6867C66.0521 74.7586 66.0532 74.8569 66.0945 74.8783C66.2111 74.9394 66.3444 74.9688 66.5176 75.0254C66.8605 75.4516 66.8086 76.0143 66.783 76.559C66.7589 77.0745 66.6778 77.587 66.6092 78.2125C66.8338 78.1517 67.0296 78.0992 67.2497 78.0401C67.33 78.2947 67.3783 78.4485 67.4288 78.6101C67.4968 78.6137 67.5979 78.6181 67.7555 78.6259C67.6173 78.8169 67.501 78.9782 67.3344 79.2097C67.5265 79.2936 67.6903 79.3646 67.8802 79.4474L67.376 79.9515C67.4743 80.2369 67.5601 80.486 67.6417 80.723C67.7916 80.7286 67.8966 80.7325 68.0476 80.738C67.9216 80.9213 67.8089 81.0856 67.6451 81.3249C67.8227 81.4049 67.9835 81.4762 68.1739 81.5617C68.0637 81.7103 67.9449 81.8702 67.79 82.0784C67.9871 82.1689 68.147 82.2422 68.4118 82.3638C68.1381 82.4843 67.9388 82.572 67.6984 82.6781C67.7722 82.9151 67.8477 83.1572 67.921 83.3926C68.0049 83.4187 68.0765 83.4676 68.1292 83.4521C68.2222 83.4246 68.2975 83.3371 68.3905 83.3107C68.7517 83.2083 69.1056 83.454 69.4621 83.3546C69.8466 83.2477 70.1917 83.379 70.5604 83.4346C70.8924 83.4845 71.1581 83.5409 71.3841 83.7985C71.4612 83.8868 71.6228 83.9007 71.7722 83.9584C71.8002 84.0664 71.8399 84.2205 71.8946 84.4312C71.7136 84.6594 71.8388 85.0823 71.3208 85.311C70.4157 85.7102 69.5104 86.1625 68.7169 86.7855C68.6728 86.8202 68.5776 86.7899 68.4488 86.7899C68.4751 87.2305 68.5012 87.668 68.5343 88.2174C68.5584 88.2482 68.6636 88.3812 68.7769 88.525C68.6548 88.6927 68.5379 88.8535 68.356 89.103C68.6983 89.1605 68.954 89.2035 69.3352 89.2677C69.1037 89.3943 68.9496 89.4789 68.7536 89.5861C68.7594 89.6547 68.7711 89.7935 68.7836 89.9442C69.1137 90.0989 69.1914 90.3176 69.0687 90.7629C69.2891 91.1533 69.501 91.5283 69.6778 91.8412C69.5967 92.0167 69.5515 92.1147 69.4932 92.2413L69.8247 92.2413C69.7716 92.6408 69.6523 93.0405 69.6872 93.4264C69.7183 93.7746 69.9188 94.1072 70.0642 94.4992C70.0945 94.5056 70.2186 94.5303 70.4154 94.5694C70.4204 94.9081 70.4254 95.2407 70.4299 95.5605C70.5679 95.5758 70.6695 95.5869 70.8455 95.6063C70.8613 95.8448 70.8768 96.0791 70.8941 96.3401L71.3355 96.7815C71.3288 97.1324 71.3221 97.4883 71.3169 97.7629" fill="black"/>
<path fill-rule="evenodd" clip-rule="evenodd" d="M92.9535 82.1607C93.7264 82.234 93.7275 82.2346 93.9174 81.5755C94.0649 81.699 94.1787 81.8212 94.3167 81.9009C94.4147 81.9572 94.5454 81.9569 94.6531 81.9803C94.6534 82.0882 94.6531 82.1596 94.6531 82.2507C94.8083 82.1943 94.9569 82.1407 95.1998 82.0527C95.2728 82.47 95.3414 82.8634 95.4105 83.2568C95.9954 83.4236 95.6198 83.9325 95.7575 84.1973C95.9705 84.6063 95.6592 85.0513 95.9807 85.3944C96.3558 85.7945 96.006 86.2398 96.059 86.6382C96.1054 86.9844 95.9671 87.3792 96.1831 87.664C96.345 87.7065 96.4729 87.7401 96.6834 87.7956C96.5859 88.1462 96.5015 88.4522 96.4166 88.7587L96.1676 89.4541C96.1934 89.767 96.2192 90.0799 96.2533 90.4977L96.4019 90.6462C96.2736 91.4846 96.1545 92.2683 96.0157 93.1778C96.242 93.1043 96.3791 93.0598 96.6065 92.9863C96.6895 93.4857 96.7736 93.9913 96.8638 94.5346C97.6437 94.1512 98.3777 93.7908 99.1348 93.4191C99.1911 93.587 99.2386 93.7289 99.303 93.921C99.6442 93.7592 99.9632 93.6079 100.327 93.4352L100.657 93.7644C100.981 93.7508 101.264 93.7386 101.559 93.7264C101.746 93.8949 101.925 94.0562 102.096 94.21L102.644 94.2097L102.528 95.486C102.546 95.8327 102.341 95.9699 102.036 96.0318C101.943 96.0507 101.844 96.1078 101.777 96.177C101.013 96.976 100.008 97.3849 99.0371 97.836C98.3208 98.1692 97.5707 98.429 96.7922 98.7389C96.7917 99.0354 96.6726 99.3788 96.9482 99.7139C96.7084 100.103 96.4627 100.501 96.2325 100.874C95.9196 100.872 95.6701 100.871 95.4197 100.869C95.4147 100.77 95.4097 100.667 95.4022 100.515C95.1712 100.434 94.9224 100.347 94.7742 100.295C94.5762 100.566 94.4013 100.805 94.2303 101.038C93.8975 100.929 93.5973 100.83 93.2903 100.729C93.2903 100.829 93.2903 100.9 93.2903 100.927C92.9527 100.924 92.6126 100.921 92.1429 100.918C91.6901 100.32 90.7506 100.053 90.1887 99.3108C90.0713 99.155 89.7689 99.062 89.5555 99.069C88.6896 99.0964 88.0646 98.5098 87.3392 98.2042C87.0621 98.0876 86.7268 97.9232 86.4819 97.6922C86.0924 97.326 85.6602 96.9821 85.3578 96.5504C84.8795 95.8677 84.3703 95.1387 84.8178 94.2342C84.9658 93.9352 85.2035 93.6809 85.4492 93.3375L86.6299 94.5182C86.7212 94.097 86.7823 93.815 86.8734 93.3941C87.0133 93.4629 87.1804 93.5446 87.347 93.6267C87.3561 93.5598 87.3653 93.4929 87.3745 93.426L88.071 94.1226C88.1351 93.9263 88.1815 93.7844 88.2251 93.6503C88.8273 93.6101 89.1787 93.9782 89.5044 94.3927C89.6498 94.3233 89.7681 94.2667 89.958 94.1762C90.0604 94.398 90.1618 94.6187 90.2842 94.8855C90.3558 94.7822 90.4044 94.7431 90.4091 94.6989C90.4214 94.5934 90.3786 94.4696 90.4186 94.3808C90.8195 93.4885 90.4574 92.4757 90.8675 91.5876C90.528 90.9871 90.9233 90.3913 90.8961 89.785C90.868 89.1545 91.0788 88.5152 91.1676 87.8772C91.2534 87.2595 91.0035 86.6132 91.3217 86.0135C91.0743 85.1632 91.0924 84.3134 91.322 83.463C90.9313 83.1102 91.3966 82.5527 90.9927 82.1726L91.6754 81.49C91.7728 81.4897 91.9155 81.4897 92.0582 81.4897C91.8941 81.9791 92.0904 82.4142 92.2151 82.9569C92.7609 82.5982 92.4708 81.7873 93.1509 81.6152C93.0854 81.7962 93.0318 81.9442 92.9535 82.1607" fill="black"/>
<path fill-rule="evenodd" clip-rule="evenodd" d="M83.1951 75.9149C82.8058 75.5961 83.265 75.0592 82.6992 74.9654C82.6928 75.0795 82.6867 75.1805 82.6806 75.2816C82.6448 75.2813 82.5982 75.2963 82.5751 75.2794C82.1481 74.9646 81.8189 74.5903 81.7797 74.0248C81.7373 73.4032 81.6895 72.7813 81.6251 72.1617C81.6048 71.966 81.5238 71.7766 81.458 71.5382C80.9635 71.318 80.4052 71.1356 79.8739 70.9307C79.3034 70.7106 78.8786 70.278 78.297 70.0773C77.988 69.971 77.8878 69.3422 77.5716 69.1498C77.2173 68.9349 76.8073 68.8608 76.7845 68.3472C76.0394 67.592 76.0818 66.6145 76.0072 65.6476L77.2684 64.3863C77.4122 64.3825 77.5546 64.3789 77.7848 64.3725C77.8375 64.8089 77.89 65.2456 77.9483 65.7286C78.0224 65.7556 78.2001 65.8194 78.438 65.9052C78.5091 65.8341 78.6859 65.7389 78.6865 65.6423C78.6904 65.2248 79.0174 65.0649 79.2148 64.8186C79.4741 64.9141 79.6906 64.9941 79.9313 65.0826C79.9597 65.3386 79.9891 65.6029 80.0332 66.0035C80.3372 65.7683 80.541 65.6107 80.8089 65.4033L81.5346 66.129C82.0626 65.6343 81.4993 64.9588 81.9324 64.5307C81.8303 64.0377 81.9083 63.5454 81.9277 63.0513C81.9505 62.4816 81.9424 61.91 81.9305 61.3395C81.9191 60.8139 81.9127 60.2856 81.8539 59.7648C81.7928 59.2284 81.6717 58.6987 81.6121 58.3642C81.8128 57.9391 81.9258 57.6996 82.0662 57.4025C82.2398 57.4328 82.4607 57.4189 82.6154 57.5136C82.7342 57.5863 82.7853 57.7901 82.8375 57.945C82.8966 58.1213 82.923 58.3081 83.1309 58.5144C83.2586 58.2007 83.3861 57.8867 83.5265 57.5413C83.9088 57.6643 84.318 57.7959 84.9385 57.9955C84.9299 57.9869 85.0668 58.1482 85.2289 58.2776C85.3549 58.3781 85.5124 58.4394 85.7 58.5421C85.7222 58.6243 85.7639 58.7759 85.8025 58.9161C85.9613 58.9222 86.0668 58.9261 86.1606 58.9294C86.4243 60.0704 86.7567 61.1923 86.9554 62.3533C87.1223 63.3281 87.2189 63.3114 87.0845 63.7689C87.1842 63.7742 87.2847 63.7792 87.3655 63.7834C87.4377 65.0537 87.5096 66.3139 87.5826 67.5929L87.8338 67.8441C88.6092 67.6723 89.3594 67.5057 90.1436 67.3316C90.2103 67.5371 90.2511 67.6628 90.3147 67.8574C90.6517 67.8319 91.0731 68.0096 91.3135 67.5482C91.5431 67.624 91.7305 67.6859 91.9149 67.747C91.9324 67.8527 91.9537 67.984 91.9832 68.1639C92.3632 68.1642 92.7044 68.1645 93.0734 68.1648C93.1839 68.4157 93.2783 68.6295 93.3826 68.8666C93.5145 68.9013 93.6733 68.9435 93.8196 68.9821C93.8504 69.0662 93.9015 69.1339 93.8904 69.1889C93.8646 69.3119 93.7647 69.4307 93.7719 69.5468C93.8138 70.24 93.776 70.3188 93.2266 70.5884C92.5151 70.9374 91.8382 71.401 91.0892 71.6209C90.0859 71.9157 89.0279 72.0243 87.8935 72.2308C87.8202 72.7205 87.79 73.3221 87.8108 73.9515C87.8311 74.5603 87.6925 75.1975 87.3138 75.8971C87.2519 75.6453 87.2267 75.5423 87.1709 75.3182C86.896 75.7191 86.6653 76.0553 86.4349 76.3912L86.2889 76.3424C86.3263 76.0389 86.3638 75.7361 86.4016 75.4329L85.8747 75.4329L85.3577 75.9498C85.1159 75.8457 84.8455 75.7286 84.5274 75.5914L83.8999 76.2188C83.5962 76.0878 83.3239 75.9704 83.1951 75.9149" fill="black"/>
<path fill-rule="evenodd" clip-rule="evenodd" d="M71.6229 57.7746C71.4252 58.0966 71.2511 58.3806 71.0054 58.7812C70.4285 58.8679 69.7264 58.9592 69.0304 59.0822C68.2004 59.2288 67.3408 59.2177 66.5427 59.5344C66.3578 59.6077 66.1821 59.7029 65.9383 59.8179C65.3953 59.7096 64.7654 59.1302 64.1943 59.8345C63.6421 59.8592 63.1488 59.4364 62.6826 59.8137C62.3095 59.7165 61.9533 59.5347 61.6041 59.548C60.0089 59.608 58.4881 59.2848 56.8606 58.6874C56.4725 58.3887 56.0144 57.9312 55.4811 57.5461C54.6413 56.9395 54.4056 55.9331 54.6311 54.9059C54.6935 54.6225 54.5397 54.2904 54.8529 54.0289C55.0708 53.8471 55.1755 53.5297 55.3756 53.1991C55.5242 53.1905 55.7207 53.1788 55.9686 53.1641C56.1136 53.736 55.9362 54.3659 56.387 54.8779C57.0205 54.5614 56.7057 53.8207 57.123 53.2818C57.2335 53.2757 57.4292 53.2643 57.6135 53.2543C57.6982 53.6777 57.7551 53.9628 57.8601 54.4881C58.0836 54.0581 58.3143 53.824 58.2871 53.6253C58.2179 53.1225 58.4539 52.6572 58.3393 52.1355C58.2326 51.6497 58.3229 51.1181 58.4342 50.5936C58.5919 49.8524 58.5366 49.0687 58.6188 48.308C58.7396 47.19 58.7737 46.0631 59.0491 44.9587C59.1585 44.5223 59.0755 44.0357 59.0647 43.5717C59.0547 43.1498 59.2876 42.7281 59.0302 42.3413L60.0486 41.323L60.7054 41.9799C60.7054 42.0365 60.7054 42.2319 60.7057 42.4676C60.8165 42.3086 60.932 42.1548 61.0341 41.9926C61.1379 41.8277 61.229 41.6545 61.377 41.3949C61.8348 41.9149 62.2912 42.3241 62.9597 42.2864C62.9855 42.461 63.0002 42.5607 63.0305 42.7619C63.1976 42.7136 63.3908 42.657 63.7506 42.552C63.5769 42.8569 63.5177 42.9604 63.4372 43.102C63.576 43.1564 63.7229 43.19 63.8414 43.2675C63.9589 43.3433 64.0469 43.4635 64.146 43.5626C64.2506 44.2286 64.355 44.8949 64.4697 45.6264C64.4194 45.6894 64.3131 45.8219 64.1568 46.0165C64.2834 46.0365 64.362 46.0495 64.4644 46.0659C64.5274 46.2194 64.5974 46.3899 64.6748 46.5801C63.9764 47.2141 64.6582 47.9054 64.5135 48.5848C64.7154 48.6122 64.8156 48.6258 64.8614 48.6322C64.8617 49.1805 64.8617 49.7336 64.8614 50.2919C64.9044 50.2899 64.8361 50.2932 64.8656 50.2916C64.8653 50.54 64.8653 50.7966 64.8656 51.0534C64.7914 51.0625 64.7179 51.0717 64.6438 51.0809L65.0424 51.4795C64.882 51.4951 64.7887 51.5039 64.5799 51.5245C64.7751 51.6691 64.905 51.7652 65.0874 51.9004C65.1432 52.3343 65.2104 52.8562 65.2834 53.4218C65.0916 53.4515 64.9602 53.4712 64.8436 53.4889C64.8897 54.0803 64.9369 54.6866 64.9847 55.2985C65.1474 55.2441 65.2973 55.1935 65.5158 55.12C65.5521 55.4284 65.5835 55.6935 65.6129 55.9423C65.6921 55.9859 65.7487 56.0425 65.8084 56.0461C66.7864 56.1019 67.7956 56.0172 68.7342 56.2368C69.7914 56.4839 70.9707 56.651 71.6229 57.7746" fill="black"/>
<path fill-rule="evenodd" clip-rule="evenodd" d="M71.1816 36.3235C71.1816 36.2303 71.1816 36.1586 71.1816 36.0848C71.1195 36.077 71.0562 36.0598 70.994 36.0626C70.6186 36.0798 70.2172 36.1742 69.8829 36.1575C69.5556 36.1417 69.2505 36.1853 68.9357 36.1858C68.517 36.1864 67.984 36.1209 67.7039 35.863C67.2028 35.4013 66.6908 34.9476 66.3008 34.3288C65.6273 33.2605 65.4241 32.1451 65.4266 30.9393C65.4296 29.4088 65.4277 27.8783 65.4277 26.2692C64.8594 26.3117 64.3474 25.8308 63.7672 26.2178C63.1689 26.026 62.5715 25.8333 61.9732 25.6415C61.4213 25.4644 61.0615 25.0374 60.674 24.6459C60.3983 24.3669 60.1198 24.0907 59.8425 23.8134C59.772 23.2326 59.7014 22.6518 59.6326 22.081L60.8938 20.8198C61.0368 21.367 61.159 21.835 61.2792 22.2945C62.0843 22.1668 61.5218 21.2617 62.1553 21.0757C62.7611 21.1701 62.4502 21.8109 62.6381 22.3003C62.8594 21.9397 62.9876 21.7298 63.1448 21.4733C63.6273 21.7104 63.8808 22.0866 64.0254 22.6182C64.1689 22.5552 64.2819 22.5055 64.4521 22.4303C64.6334 22.4366 64.4654 22.6318 64.5729 22.8009C64.8805 22.8653 65.255 22.9439 65.7181 23.041C65.6564 20.4808 66.3707 18.0091 65.8477 15.5377L66.6073 14.7782C66.7986 15.0866 66.9657 15.3559 67.1942 15.7243C67.3308 15.4389 67.436 15.2193 67.5801 14.9181L68.1675 15.5055C68.321 15.4159 68.4071 15.3653 68.4934 15.3151C68.5551 15.3384 68.6264 15.3498 68.6758 15.3887C68.7594 15.4539 68.8191 15.5519 68.9065 15.6105C69.8468 16.2426 70.0792 17.2579 70.2574 18.2579C70.4507 19.3395 70.5226 20.443 70.6567 21.6199C71.4754 21.6946 72.2874 21.3167 73.228 21.2101C73.3066 21.2692 73.4384 21.3695 73.5906 21.4844C73.9029 21.5191 74.2952 21.4627 74.5742 21.6146C75.1858 21.9475 75.9703 22.0424 76.3457 22.8864C76.3146 22.9697 76.2505 23.1576 76.1763 23.3417C76.1022 23.5252 76.0181 23.7037 75.9287 23.9069C75.5245 23.9036 75.1364 24.4211 74.8004 23.9636C74.2047 24.2923 73.6802 24.5813 73.1719 24.8614C72.9248 24.7948 72.7008 24.7345 72.4476 24.6662L71.6114 25.5024C71.5001 25.4333 71.4154 25.3814 71.311 25.317C70.7638 25.3883 70.7841 25.9283 70.6517 26.1573C70.6911 26.6909 70.7213 27.0993 70.7541 27.5501C70.6486 27.5646 70.5639 27.576 70.4176 27.5962C70.4546 27.8119 70.4943 28.0443 70.5426 28.3275C70.5067 28.3228 70.5939 28.3339 70.723 28.3502C70.4601 28.7892 70.7821 29.1723 70.9179 29.6168C70.7219 29.6634 70.5931 29.6939 70.3957 29.7409C70.5054 29.8922 70.6128 30.0401 70.7394 30.2156C70.7014 30.2819 70.6517 30.3683 70.5631 30.5229C70.8374 30.8622 71.1675 31.2794 70.6109 31.6323C70.6561 31.9829 70.5842 32.423 70.7549 32.5587C71.2677 32.9671 71.1022 33.5729 71.3571 34.0382C71.7624 34.5429 71.7691 34.5357 72.2144 34.6983C72.1475 35.2905 71.9523 35.8394 71.6342 36.3757C71.5078 36.361 71.3671 36.3452 71.1816 36.3235" fill="black"/>
<path fill-rule="evenodd" clip-rule="evenodd" d="M18.3496 72.0474C18.1844 72.2592 18.085 72.3869 17.9595 72.5479C18.1433 72.5574 18.2477 72.5624 18.4151 72.571C18.5767 73.1085 18.4301 73.6743 18.4942 74.2214L18.7308 74.2214C18.6894 74.5649 18.6477 74.9086 18.6125 75.2009C18.7605 75.5299 19.2227 75.6057 19.052 76.0718C19.5231 75.9788 19.9498 75.8897 20.3782 75.8111C21.7221 75.5654 23.0433 75.1865 24.4381 75.2709C25.2368 75.3189 25.9994 75.3747 26.6141 75.976C26.7176 76.0773 26.9228 76.0743 27.156 76.1415C27.0722 76.5146 26.9933 76.8638 26.8948 77.3017C24.4983 77.9274 22.1472 78.7006 19.5581 78.9771C19.5139 79.1384 19.339 79.4121 19.4129 79.5687C19.7052 80.1892 19.7041 80.8311 19.7035 81.4851C19.7035 81.5651 19.8132 81.6448 19.8723 81.7256C19.7477 81.8813 19.6414 82.0132 19.4795 82.215C19.6341 82.2997 19.7655 82.3716 19.9953 82.4976C19.9478 83.0331 20.0933 83.6139 20.4295 84.1794C20.6247 84.5079 20.5883 84.9734 20.6797 85.5145L22.3248 87.1597C22.1908 87.3121 22.0789 87.439 21.9523 87.5828C22.005 87.6939 22.0617 87.8127 22.1297 87.9551L21.6077 88.477C21.2896 88.3221 20.9634 88.163 20.5872 87.9801C20.5059 88.1891 20.4245 88.3976 20.3276 88.6461C20.1822 88.5717 20.0681 88.5137 19.954 88.4556C19.8934 88.4806 19.8068 88.4884 19.7754 88.5342C19.5159 88.9154 19.0256 88.8638 18.8138 88.7308C17.9512 88.1897 16.803 87.9498 16.4856 86.7602C15.7474 86.0059 15.6414 84.9732 15.2549 84.0615C15.1289 83.7638 15.5348 83.4324 15.0689 83.1664C14.8774 83.057 14.9121 82.5454 14.8507 82.2153C14.7952 81.916 14.7258 81.6173 14.7041 81.3152C14.6786 80.9604 14.7197 80.6006 14.6919 80.2464C14.6683 79.9513 14.5873 79.6609 14.5248 79.3325C12.9138 79.5615 11.3693 79.1426 9.80912 78.8722C8.71668 78.1934 7.49931 77.6906 6.60176 76.5143C6.57011 76.0568 6.5293 75.4713 6.48599 74.8422C6.87688 74.5846 7.0404 74.0191 7.67449 74.0607C7.74195 74.5163 7.80886 74.9685 7.8766 75.4255C7.98681 75.4285 8.08981 75.4322 8.19114 75.4352C8.68697 75.1093 8.23945 74.3608 8.80718 74.0701C8.99485 74.1301 9.18253 74.1906 9.37797 74.2528C9.3305 74.4696 9.27636 74.7181 9.21917 74.9785C9.41323 74.9788 9.55593 74.9788 9.69862 74.9788C9.69113 74.5427 9.89657 74.3317 10.4518 74.3833C10.5981 74.5751 10.9735 74.6884 10.9174 75.1382C11.0728 75.0837 11.225 75.0304 11.4421 74.9538C11.4837 75.237 11.5204 75.488 11.5581 75.745C11.6967 75.6792 11.8152 75.6223 12.064 75.5041C11.9407 75.7184 11.8821 75.8197 11.78 75.9974C11.9177 76.1057 12.0565 76.3033 12.2205 76.3275C12.9002 76.4274 13.5873 76.4749 14.3468 76.5487C14.3663 76.1906 14.3851 75.9197 14.3946 75.6487C14.4507 74.0479 14.2177 72.4286 14.6983 70.8542C14.4082 70.5752 14.7261 70.2973 14.7019 70.0166C14.6747 69.699 14.6772 69.3789 14.67 69.1635L15.1789 68.6546C15.2877 69.2248 15.0864 69.8098 15.7038 70.1707C15.8366 69.646 15.9665 69.1324 16.125 68.5069C16.3141 68.7659 16.4595 68.9658 16.6253 69.1926C16.8315 69.1246 17.1389 69.0244 17.4681 68.9161C17.5287 69.0893 17.5789 69.234 17.638 69.4031C17.7338 69.3406 17.8168 69.2859 17.9037 69.229C17.9406 69.2509 18.0198 69.2723 18.0245 69.3048C18.0889 69.7379 18.062 70.2045 18.2202 70.5977C18.419 71.0907 18.2502 71.571 18.3496 72.0474" fill="black"/>
<path fill-rule="evenodd" clip-rule="evenodd" d="M39.898 65.9547C39.7611 64.6113 39.6553 63.4866 39.5304 62.3639C39.4121 61.3006 39.1781 60.2587 38.8916 59.2376C38.7866 59.2265 38.685 59.216 38.511 59.1979C38.4937 58.9242 38.4763 58.653 38.4579 58.3653L38.9568 57.8665C39.3299 57.8665 39.7464 57.9825 40.0279 57.837C40.3713 57.6591 40.6167 57.8306 40.8777 57.8812C41.7819 58.0558 42.5831 58.3495 43.0057 59.3328C43.2655 59.9375 43.5234 60.5447 43.7744 61.1543C43.8502 61.3378 43.9465 61.513 44.0753 61.779L44.0756 62.5438L44.552 63.0202C44.7949 63.8617 44.9979 64.5627 45.2194 65.3295C45.8521 65.2087 46.4459 65.1085 47.0339 64.9813C48.1991 64.7295 49.3524 64.7106 50.4817 65.1399C50.7246 65.2323 50.9453 65.3842 51.2854 65.5677C51.3182 65.6543 51.3993 65.8669 51.4875 66.1007C51.4043 66.3295 51.3143 66.5765 51.2438 66.7692C50.7649 67.0021 50.3582 67.2251 49.932 67.4008C49.5059 67.5771 49.0603 67.7062 48.6233 67.8561C48.135 67.4677 47.8124 68.1445 47.3085 68.0521C46.8948 67.976 46.4176 68.2495 45.8965 68.3869C45.9165 70.3802 46.1472 72.3488 46.5081 74.3044C46.5356 74.4546 46.7 74.5795 46.8007 74.7158C46.7208 75.3311 46.3363 75.6339 45.7483 75.7355L45.5076 75.4948C44.791 75.6745 44.1195 75.843 43.3846 76.027C42.9071 75.9893 42.6142 75.4726 42.1578 75.3027C41.6495 75.1137 41.4468 74.6412 41.1298 74.4452C40.5143 72.828 40.1292 71.2575 40.1342 69.5651L39.6189 69.0499C38.7866 69.1987 37.9491 68.9707 37.1179 68.757C36.8391 68.6854 36.5943 68.4727 36.3408 68.3142C35.8253 67.9913 35.2756 67.7298 34.843 67.2717C34.016 66.3953 33.8919 65.3039 34.3994 64.1851C34.7195 63.4797 35.3144 63.0785 35.8116 62.473C36.1292 63.3842 35.3658 64.0427 35.4652 64.9733C36.1503 64.2248 35.9119 63.1129 36.7717 62.5108C36.9155 62.7112 37.0596 62.9119 37.2111 63.1235C37.3924 63.0366 37.6589 62.9094 37.9155 62.7873L38.8769 63.7487C39.0221 64.2837 39.1473 64.837 39.3313 65.3703C39.3902 65.5418 39.6037 65.6604 39.898 65.9547" fill="black"/>
<path fill-rule="evenodd" clip-rule="evenodd" d="M43.2677 43.7359C43.3396 44.3747 43.4056 44.9583 43.4781 45.6032L44.4495 46.5746C44.2902 46.9477 44.1355 47.3111 43.9603 47.7212C43.2785 47.7312 42.6927 47.4258 42.1608 47.1154C42.0678 47.3189 41.9853 47.4985 41.8629 47.7653C41.4906 47.6984 41.1108 47.6901 40.7796 47.5593C39.7877 47.167 39.0725 46.4041 38.4099 45.6759C38.2491 45.2637 38.1053 44.8956 37.9257 44.4361C37.685 44.614 37.5287 44.8286 37.374 44.8278C36.3904 44.8225 35.4046 44.8023 34.4252 44.7195C33.8971 44.6746 33.3183 44.6054 32.873 44.3528C32.2217 43.9825 31.6698 43.4372 31.0329 42.933C30.9393 42.3786 30.7472 41.8117 30.7783 41.2576C30.8069 40.7482 31.0762 40.2523 31.2797 39.6263C31.481 39.6344 31.6764 39.6416 31.8746 39.6493C31.8724 39.7582 31.8452 41.2096 31.8452 41.2096C31.9521 41.2099 32.0593 41.2099 32.2167 41.2096C32.3083 40.6243 32.3225 39.9644 33.0856 39.6271C33.1362 39.9508 33.1753 40.2026 33.2442 40.6452C33.3982 40.294 33.4846 40.0983 33.604 39.8267C33.8349 39.8734 34.0828 39.9236 34.3838 39.9847C34.3841 40.4025 34.3841 40.7307 34.3843 41.1268C34.5381 41.0252 34.6214 40.9708 34.7594 40.88C34.8771 41.3409 35.3741 41.6441 35.0795 42.234C36.0584 42.3351 36.8446 42.144 37.6697 41.9775C37.9548 38.9245 38.2336 35.9378 38.5162 32.9112L39.2466 32.1808C39.3751 32.5653 39.4781 32.8715 39.5822 33.1816C39.969 33.1297 39.9545 32.7682 40.0645 32.4895C41.1497 32.452 41.9359 32.9739 42.55 33.819C42.6161 34.3515 42.6838 34.8984 42.753 35.4567C42.7832 35.4553 42.8535 35.4528 43.0459 35.4453C42.9284 35.5972 42.8154 35.7435 42.7022 35.8901C42.8074 35.8937 42.9129 35.8976 43.0184 35.9015L42.7366 36.1832C43.1941 37.6785 42.9814 39.2199 43.2288 40.7515C44.5991 40.3617 45.9487 39.7418 47.4348 39.3656C47.603 39.4772 47.7937 39.6041 48.0189 39.7543C48.0122 39.5189 48.0072 39.3423 48.0025 39.1721C48.4278 38.8478 48.8509 39.2865 49.3231 39.1296C49.7368 38.9925 50.2646 39.1988 50.7482 39.2537L51.6471 40.1527C51.6471 40.2981 51.6471 40.4408 51.6471 40.6407C50.7843 41.337 49.6954 41.5374 48.6263 41.8881C48.6249 41.9156 48.6199 42.0161 48.6177 42.0599C47.9983 42.4339 47.1691 42.1971 46.6758 42.8498C46.0653 42.7734 45.5994 43.186 45.0544 43.3262C44.5039 43.468 43.9467 43.5816 43.2677 43.7359" fill="black"/>
<path fill-rule="evenodd" clip-rule="evenodd" d="M77.4126 33.7835C77.6572 33.7155 77.8496 33.6619 78.1319 33.5834C78.3374 33.871 78.5442 34.1611 78.7993 34.5178C79.1466 34.6114 79.5886 34.8407 80.1092 34.5911C80.0411 34.1783 79.8718 33.7974 80.0692 33.3313C80.2074 33.0037 80.0126 32.5351 79.9642 32.1297C79.9109 31.6839 80.0131 31.2408 79.8637 30.7822C79.738 30.3965 79.8424 29.9423 79.7805 29.5279C79.7161 29.0998 79.5747 28.6831 79.4673 28.2619L80.3207 27.4085C80.605 27.6028 80.9154 27.7655 80.8807 28.2944C81.135 28.0623 81.3318 27.8827 81.5117 27.7183C81.9417 27.9946 82.331 28.245 82.7119 28.4893C82.6372 28.66 82.5842 28.7808 82.5217 28.9232C82.6019 28.9818 82.6727 29.0559 82.7591 29.0928C83.4911 29.4029 83.6355 29.6161 83.6322 30.424C83.6305 30.7611 83.8207 31.0928 84.0525 31.1869C84.4167 31.3346 83.9931 31.5612 84.3829 31.6439C84.0861 31.6725 83.9928 31.6814 83.8318 31.6969L84.2535 32.1186C84.1244 32.3093 84.0125 32.474 83.8795 32.6697L84.2935 33.0836C84.3015 33.4792 84.3076 33.7585 84.3126 33.9912C84.8351 33.9856 85.3168 33.9804 85.7177 33.9765L86.2879 34.5467C86.6144 34.5467 86.9559 34.5467 87.3062 34.5473C87.3484 34.6983 87.3745 34.7938 87.4206 34.9615C87.661 35.0431 87.9567 35.1439 88.3381 35.2738C88.4969 35.7246 88.6724 36.2227 88.839 36.6958L88.2079 37.3268C87.0522 37.6413 85.9312 37.9456 84.8135 38.2493C84.882 38.57 84.9367 38.8251 84.9831 39.0414C84.7882 39.1086 84.6377 39.1602 84.3793 39.2493L85.0839 39.9539C84.7676 40.0986 84.5467 40.1996 84.133 40.389C84.4273 40.4345 84.5078 40.4467 84.6627 40.4706C84.6544 40.7399 84.6455 41.0247 84.6313 41.4753C84.3029 41.2401 84.0972 41.0927 83.8709 40.9303C83.9406 40.7873 83.997 40.6716 84.0683 40.5242C84.0222 40.4564 83.9664 40.3745 83.8981 40.2746C83.769 40.337 83.6511 40.3951 83.5322 40.4528C83.4309 40.2865 83.329 40.1186 83.1563 39.8337C83.1447 40.1025 83.1402 40.2063 83.1375 40.2679C82.7546 40.5297 82.3929 40.7776 82.0117 41.0389C81.8673 40.9933 81.6794 40.9337 81.4587 40.8645C81.2943 40.5858 81.1078 40.2693 80.917 39.947C81.0894 39.8234 81.3088 39.6669 81.5278 39.51C81.5078 39.4745 81.4876 39.4392 81.4676 39.4031C81.1727 39.5009 80.8782 39.5983 80.6183 39.6844C80.5103 39.3737 80.4026 39.0644 80.2904 38.7424C78.9465 38.3945 77.6053 38.1388 76.3796 37.5267C75.5626 37.0778 75.155 36.2344 74.6231 35.5203C74.2094 34.9651 74.2675 34.2219 74.4607 33.5384C74.4882 33.4409 74.507 33.3415 74.5448 33.1794L75.2977 32.4265C75.5354 32.4265 75.7494 32.4268 75.8999 32.4268C75.8999 32.7233 75.8996 33.0245 75.8993 33.203L76.3652 33.6689C76.4887 33.4587 76.6075 33.2571 76.7433 33.0264C76.929 33.0201 77.0995 33.0145 77.3357 33.0065C77.364 33.2913 77.3874 33.5262 77.4126 33.7835" fill="black"/>
<path fill-rule="evenodd" clip-rule="evenodd" d="M39.6557 87.093C39.8268 87.093 39.9694 87.093 40.1716 87.093C40.1044 87.9536 40.0372 88.8093 39.9706 89.6649C40.0075 89.6813 40.0447 89.6974 40.0816 89.7132C40.151 89.5866 40.2682 89.4645 40.2796 89.3331C40.3012 89.0883 40.2615 88.8387 40.4084 88.6197C40.5494 88.1138 40.6902 87.6077 40.827 87.1155C41.3231 87.063 41.2981 87.4384 41.4492 87.8254C41.5608 87.5777 41.633 87.4173 41.7104 87.2443C41.8198 87.2443 41.9625 87.2443 42.1057 87.2443C42.4084 87.5464 42.711 87.849 43.0172 88.1552C43.015 88.3295 43.0133 88.5078 43.0108 88.6957C43.0597 88.7168 43.1116 88.7615 43.1563 88.7546C43.4575 88.7115 43.7601 88.6705 44.0566 88.6038C44.375 88.5319 44.6837 88.2943 45.0069 88.6024C45.0441 88.638 45.1468 88.6174 45.2159 88.6055C45.4813 88.5594 45.7467 88.46 46.0094 88.4689C46.2712 88.4775 46.5294 88.5919 46.8761 88.6827C47.0041 88.8107 47.2059 89.0125 47.4072 89.2143C47.4069 89.4645 47.4072 89.714 47.4072 89.9228C46.1113 90.5364 44.8306 91.143 43.5502 91.7493C43.4525 92.0708 43.347 92.4167 43.2412 92.7629C43.2165 92.757 43.1918 92.7512 43.1671 92.7454C43.1668 93.1377 43.1668 93.5302 43.1668 94.0316C43.2229 94.0949 43.3328 94.2193 43.473 94.3778C43.4578 95.1576 43.4422 95.9744 43.4297 96.6332C43.784 97.3245 44.4064 97.7759 43.8201 98.5827C43.4455 98.4963 42.8911 98.9769 42.4719 98.3217C42.2873 98.4236 42.0599 98.5482 41.8126 98.6845C41.7984 98.757 41.7726 98.8872 41.7523 98.9885C41.3514 98.9774 41.0008 98.9672 40.4917 98.9527C39.9642 98.5357 39.289 98.0021 38.5786 97.4405C38.5275 96.1318 38.4772 94.8423 38.4237 93.4739C38.0056 93.5699 37.6058 93.7004 37.1968 93.7457C36.7737 93.7923 36.3415 93.7559 35.9012 93.7559C35.7657 93.4989 35.6275 93.2368 35.4778 92.9539C35.3124 93.0349 35.1941 93.0927 35.0469 93.1643L34.5356 92.6529C34.5353 92.5683 34.5356 92.4614 34.5353 92.3373C34.7088 92.0777 34.8909 91.8051 35.1158 91.4681C36.2835 91.1399 37.5603 90.7809 38.8021 90.4314C39.2965 89.3301 39.1138 88.113 39.6557 87.093" fill="black"/>
</g>
</svg>
