<svg width="128" height="128" viewBox="0 0 128 128" fill="none" xmlns="http://www.w3.org/2000/svg">
<path d="M120.723 88.5428C120.986 88.8058 121.15 89.0896 121.215 89.3942C121.277 89.6963 121.241 89.9879 121.105 90.2691L120.492 90.109C120.69 89.6924 120.617 89.3122 120.273 88.9685C120.104 88.7993 119.945 88.7055 119.797 88.6873C119.643 88.6691 119.513 88.7134 119.406 88.8201C119.294 88.9321 119.255 89.0623 119.289 89.2107C119.321 89.3617 119.417 89.5882 119.578 89.8903C119.669 90.0595 119.738 90.2014 119.785 90.316C119.832 90.4306 119.871 90.5634 119.902 90.7144C119.928 90.8654 119.918 91.0086 119.871 91.144C119.824 91.2794 119.74 91.4083 119.617 91.5307C119.375 91.7728 119.098 91.8783 118.785 91.847C118.47 91.8184 118.192 91.683 117.95 91.4408C117.731 91.2221 117.593 90.9774 117.536 90.7066C117.478 90.4358 117.499 90.1624 117.598 89.8864L118.196 90.0465C118.055 90.4162 118.119 90.7352 118.387 91.0034C118.517 91.1336 118.653 91.2065 118.793 91.2221C118.931 91.2403 119.052 91.1974 119.156 91.0932C119.258 90.9917 119.3 90.8719 119.281 90.7339C119.258 90.5959 119.175 90.3902 119.031 90.1168C118.961 89.9788 118.912 89.8773 118.883 89.8122C118.849 89.7471 118.808 89.6533 118.758 89.5309C118.706 89.406 118.676 89.3031 118.668 89.2224C118.66 89.1417 118.659 89.0492 118.664 88.9451C118.667 88.8383 118.693 88.7394 118.742 88.6483C118.792 88.5571 118.861 88.4673 118.949 88.3788C119.197 88.1314 119.483 88.0246 119.809 88.0585C120.129 88.0923 120.434 88.2538 120.723 88.5428Z" fill="#718EBF"/>
<path d="M116.647 103.356C115.838 104.165 114.526 104.165 113.717 103.356L106.882 96.5212C106.073 95.7123 106.073 94.4008 106.882 93.5919L111.276 89.198L121.04 98.9623L116.647 103.356Z" fill="#E8F2FF"/>
<path d="M105.095 78.4845L107.829 75.7505L108.278 76.1996L106.329 78.1486L108.536 77.6057L108.59 77.6604L108.044 79.871L109.996 77.9182L110.446 78.3673L107.712 81.1013L107.227 80.617L107.77 78.4259L105.575 78.9649L105.095 78.4845Z" fill="#718EBF"/>
<path d="M102 94.5683C101.191 95.3772 99.8796 95.3772 99.0707 94.5683L92.2357 87.7334C91.4268 86.9245 91.4268 85.613 92.2357 84.8041L99.5589 77.4809L109.323 87.2451L102 94.5683Z" fill="#E8F2FF"/>
<path d="M93.9099 67.2989L94.3395 66.8693L95.1089 67.6387L97.4133 65.3343L97.8625 65.7835L95.5581 68.0879L96.3314 68.8612L95.9018 69.2908L93.9099 67.2989Z" fill="#718EBF"/>
<path d="M78.5657 94.5678C77.7568 95.3767 76.4453 95.3767 75.6365 94.5678L68.8015 87.7329C67.9926 86.924 67.9926 85.6125 68.8015 84.8036L87.8418 65.7633L97.606 75.5276L78.5657 94.5678Z" fill="#E8F2FF"/>
<path d="M86.9379 54.8591L84.9772 58.3665L84.5047 57.8939L86.0669 55.1833L83.3095 56.6987L82.8955 56.2847L84.4148 53.5312L81.7043 55.0935L81.2317 54.6209L84.739 52.6602L85.2585 53.1797L83.8407 55.7536L86.4184 54.3397L86.9379 54.8591Z" fill="#718EBF"/>
<path d="M72.219 77.4804C71.4101 78.2893 70.0986 78.2893 69.2897 77.4804L62.4548 70.6455C61.6459 69.8366 61.6459 68.5251 62.4548 67.7162L76.1247 54.0463L85.8889 63.8105L72.219 77.4804Z" fill="#3734A9"/>
<path d="M70.476 43.8653L70.9056 43.4357L71.675 44.2051L73.9794 41.9007L74.4285 42.3499L72.1242 44.6543L72.8975 45.4276L72.4679 45.8572L70.476 43.8653Z" fill="#718EBF"/>
<path d="M46.832 79.4338C46.0231 80.2427 44.7116 80.2427 43.9027 79.4338L37.0678 72.5988C36.2589 71.7899 36.2589 70.4785 37.0678 69.6696L64.4077 42.3297L74.1719 52.0939L46.832 79.4338Z" fill="#3734A9"/>
<path d="M58.8322 31.3615L59.9844 32.5137L60.7499 31.7482L59.6368 30.6351L60.0664 30.2054L61.1795 31.3186L62.2887 30.2093L62.7379 30.6585L60.0039 33.3925L58.4026 31.7911L58.8322 31.3615Z" fill="#718EBF"/>
<path d="M58.0611 44.77C57.2522 45.5789 55.9407 45.5789 55.1318 44.77L48.2968 37.935C47.488 37.1261 47.4879 35.8146 48.2968 35.0057L52.6908 30.6118L62.455 40.3761L58.0611 44.77Z" fill="#E8F2FF"/>
<path d="M50.4198 18.2398C50.6828 18.5028 50.8469 18.7866 50.912 19.0913C50.9745 19.3933 50.938 19.6849 50.8026 19.9661L50.1894 19.806C50.3873 19.3894 50.3144 19.0092 49.9707 18.6655C49.8014 18.4963 49.6426 18.4026 49.4942 18.3843C49.3406 18.3661 49.2104 18.4104 49.1036 18.5171C48.9917 18.6291 48.9526 18.7593 48.9865 18.9077C49.0177 19.0587 49.114 19.2853 49.2755 19.5873C49.3666 19.7565 49.4356 19.8984 49.4825 20.013C49.5293 20.1276 49.5684 20.2604 49.5996 20.4114C49.6257 20.5624 49.6153 20.7056 49.5684 20.841C49.5215 20.9764 49.4369 21.1053 49.3145 21.2277C49.0724 21.4698 48.7951 21.5753 48.4826 21.544C48.1676 21.5154 47.889 21.38 47.6468 21.1379C47.4281 20.9191 47.2901 20.6744 47.2328 20.4036C47.1755 20.1328 47.1963 19.8594 47.2953 19.5834L47.8929 19.7435C47.7523 20.1133 47.816 20.4322 48.0842 20.7004C48.2144 20.8306 48.3498 20.9035 48.4904 20.9191C48.6284 20.9374 48.7495 20.8944 48.8537 20.7902C48.9552 20.6887 48.9969 20.5689 48.9786 20.4309C48.9552 20.2929 48.8719 20.0872 48.7287 19.8138C48.6584 19.6758 48.6089 19.5743 48.5803 19.5092C48.5464 19.4441 48.5047 19.3503 48.4553 19.228C48.4032 19.103 48.3733 19.0001 48.3654 18.9194C48.3576 18.8387 48.3563 18.7463 48.3615 18.6421C48.3641 18.5354 48.3902 18.4364 48.4397 18.3453C48.4891 18.2541 48.5581 18.1643 48.6467 18.0758C48.894 17.8284 49.1804 17.7217 49.5059 17.7555C49.8262 17.7894 50.1308 17.9508 50.4198 18.2398Z" fill="#718EBF"/>
<path d="M37.0676 42.3296C36.2587 43.1384 34.9472 43.1384 34.1383 42.3296L27.3033 35.4946C26.4944 34.6857 26.4944 33.3742 27.3033 32.5653L40.9733 18.8954L50.7375 28.6596L37.0676 42.3296Z" fill="#3734A9"/>
<path d="M38.2148 6.03475C38.4778 6.29773 38.6418 6.58155 38.7069 6.88619C38.7694 7.18823 38.733 7.47986 38.5976 7.76107L37.9844 7.60093C38.1823 7.18433 38.1094 6.80417 37.7657 6.46047C37.5964 6.29122 37.4376 6.19749 37.2892 6.17926C37.1356 6.16103 37.0054 6.2053 36.8986 6.31205C36.7866 6.42402 36.7476 6.55421 36.7814 6.70262C36.8127 6.85364 36.909 7.08017 37.0705 7.38221C37.1616 7.55146 37.2306 7.69337 37.2775 7.80793C37.3243 7.9225 37.3634 8.0553 37.3946 8.20632C37.4207 8.35734 37.4103 8.50054 37.3634 8.63594C37.3165 8.77134 37.2319 8.90023 37.1095 9.02261C36.8674 9.26476 36.5901 9.37021 36.2776 9.33897C35.9625 9.31033 35.6839 9.17493 35.4418 8.93278C35.2231 8.71406 35.0851 8.4693 35.0278 8.1985C34.9705 7.92771 34.9913 7.65431 35.0903 7.37831L35.6878 7.53844C35.5472 7.90818 35.611 8.22715 35.8792 8.49534C36.0094 8.62553 36.1448 8.69843 36.2854 8.71406C36.4234 8.73228 36.5445 8.68932 36.6486 8.58517C36.7502 8.48362 36.7919 8.36385 36.7736 8.22584C36.7502 8.08784 36.6669 7.88214 36.5237 7.60874C36.4534 7.47074 36.4039 7.36919 36.3752 7.3041C36.3414 7.239 36.2997 7.14527 36.2503 7.02289C36.1982 6.89791 36.1682 6.79506 36.1604 6.71434C36.1526 6.63362 36.1513 6.54119 36.1565 6.43704C36.1591 6.33028 36.1852 6.23134 36.2346 6.1402C36.2841 6.04907 36.3531 5.95924 36.4416 5.87071C36.689 5.62335 36.9754 5.51659 37.3009 5.55044C37.6212 5.58429 37.9258 5.74573 38.2148 6.03475Z" fill="#718EBF"/>
<path d="M18.0276 37.9358C17.2187 38.7447 15.9073 38.7447 15.0984 37.9358L8.2634 31.1008C7.4545 30.2919 7.4545 28.9804 8.2634 28.1715L29.2565 7.1784L39.0208 16.9426L18.0276 37.9358Z" fill="#3734A9"/>
</svg>
