<svg width="183" height="302" viewBox="0 0 183 302" fill="none" xmlns="http://www.w3.org/2000/svg">
<path d="M16.1048 299.633L35.5894 280.148C37.6141 278.124 38.1116 275.028 36.8233 272.471L16.1283 231.392C14.84 228.834 15.3375 225.739 17.3622 223.715L25.7507 215.326C27.6695 213.407 28.2266 210.514 27.1572 208.02L2.67461 150.923C1.77607 148.827 2.2441 146.396 3.85634 144.783V144.783C5.43855 143.201 7.81343 142.718 9.88793 143.557L11.2551 144.109C13.724 145.107 16.5505 144.533 18.4336 142.65L20.8634 140.22C22.8249 138.258 25.7994 137.724 28.3209 138.88L89.4423 166.907C91.2069 167.716 93.2887 167.342 94.6614 165.97V165.97C95.9498 164.681 96.3656 162.758 95.7247 161.053L88.3084 141.317C86.7311 137.119 89.6855 132.598 94.1632 132.357L97.6157 132.171C99.2499 132.083 100.794 131.395 101.951 130.238L117.285 114.903C119.168 113.02 119.743 110.194 118.745 107.725L79.4929 10.6227C77.3267 5.26416 82.5714 -0.109486 87.981 1.92586L181.032 36.9358" stroke="#4F46BA" stroke-width="2.84366" stroke-linecap="round" stroke-linejoin="round"/>
</svg>
