<svg width="307" height="323" viewBox="0 0 307 323" fill="none" xmlns="http://www.w3.org/2000/svg">
<g filter="url(#filter0_dddddd_0_412)">
<rect x="171.754" y="201.423" width="167.776" height="115.993" rx="6.90436" transform="rotate(-135 171.754 201.423)" fill="white"/>
</g>
<path d="M171.177 181.087L171.928 180.335L173.275 181.681L177.307 177.649L178.093 178.435L174.061 182.467L175.414 183.821L174.662 184.572L171.177 181.087ZM174.517 174.681C175.019 175.182 175.272 175.781 175.276 176.478C175.281 177.176 175.03 177.777 174.524 178.283C174.019 178.789 173.417 179.039 172.72 179.035C172.023 179.03 171.424 178.777 170.922 178.276C170.416 177.77 170.164 177.171 170.164 176.478C170.159 175.781 170.41 175.18 170.915 174.674C171.421 174.168 172.023 173.918 172.72 173.922C173.412 173.922 174.012 174.175 174.517 174.681ZM174.251 176.465C174.251 176.055 174.101 175.699 173.8 175.399C173.499 175.098 173.144 174.947 172.734 174.947C172.323 174.947 171.963 175.102 171.654 175.412C171.344 175.722 171.189 176.082 171.189 176.492C171.189 176.902 171.339 177.258 171.64 177.558C171.941 177.859 172.296 178.009 172.706 178.009C173.116 178.009 173.476 177.855 173.786 177.545C174.096 177.235 174.251 176.875 174.251 176.465ZM167.41 173.164L168.257 174.012L169.898 172.371C170.039 172.23 170.11 172.096 170.11 171.968C170.105 171.845 170.046 171.718 169.932 171.585C169.809 171.453 169.649 171.298 169.454 171.121L170.116 170.458C170.75 170.954 171.108 171.408 171.19 171.818C171.267 172.232 171.083 172.663 170.636 173.11L168.996 174.75L169.624 175.379L168.914 176.09L168.285 175.461L167.547 176.199L166.59 175.68L167.547 174.723L166.699 173.875L167.41 173.164ZM163.463 170.639L162.725 169.901L166.142 166.483L166.881 167.222L166.388 167.714C167.054 167.604 167.646 167.809 168.165 168.329C168.635 168.798 168.863 169.372 168.849 170.051C168.831 170.735 168.571 171.327 168.07 171.828C167.564 172.334 166.972 172.594 166.293 172.608C165.614 172.621 165.04 172.393 164.57 171.924C164.051 171.405 163.844 170.815 163.948 170.154L163.463 170.639ZM167.81 169.997C167.81 169.587 167.655 169.227 167.345 168.917C167.035 168.607 166.675 168.452 166.265 168.452C165.851 168.456 165.486 168.616 165.172 168.93C164.857 169.245 164.7 169.607 164.7 170.017C164.696 170.432 164.848 170.794 165.158 171.104C165.468 171.414 165.83 171.566 166.245 171.562C166.655 171.562 167.017 171.405 167.332 171.09C167.646 170.776 167.806 170.411 167.81 169.997ZM165.282 165.623L160.292 170.613L159.554 169.874L164.544 164.885L165.282 165.623ZM156.633 161.936C156.533 161.617 156.519 161.303 156.592 160.993C156.665 160.683 156.827 160.403 157.077 160.152C157.469 159.76 157.934 159.574 158.472 159.592C159.009 159.61 159.479 159.82 159.88 160.221L161.93 162.271L157.146 167.056L155.245 165.156C154.854 164.764 154.651 164.306 154.637 163.782C154.614 163.258 154.792 162.807 155.17 162.428C155.585 162.014 156.073 161.85 156.633 161.936ZM155.984 164.417L157.098 165.531L158.355 164.274L157.241 163.16C157.068 162.987 156.863 162.9 156.626 162.9C156.385 162.905 156.175 162.996 155.997 163.173C155.82 163.351 155.731 163.558 155.731 163.795C155.726 164.037 155.81 164.244 155.984 164.417ZM159.141 160.959C158.959 160.777 158.743 160.688 158.492 160.692C158.232 160.697 158.009 160.793 157.822 160.979C157.635 161.166 157.542 161.387 157.542 161.642C157.533 161.898 157.619 162.116 157.802 162.299L159.066 163.563L160.406 162.223L159.141 160.959ZM151.649 158.825L150.911 158.087L154.328 154.669L155.066 155.407L154.574 155.899C155.239 155.79 155.832 155.995 156.351 156.515C156.82 156.984 157.048 157.558 157.035 158.237C157.016 158.92 156.757 159.513 156.255 160.014C155.75 160.52 155.157 160.78 154.478 160.793C153.799 160.807 153.225 160.579 152.756 160.11C152.236 159.59 152.029 159 152.134 158.339L151.649 158.825ZM155.996 158.182C155.996 157.772 155.841 157.412 155.531 157.102C155.221 156.792 154.861 156.638 154.451 156.638C154.036 156.642 153.672 156.802 153.357 157.116C153.043 157.43 152.886 157.793 152.886 158.203C152.881 158.617 153.034 158.98 153.344 159.29C153.654 159.599 154.016 159.752 154.431 159.747C154.841 159.747 155.203 159.59 155.517 159.276C155.832 158.961 155.991 158.597 155.996 158.182ZM153.468 153.809L148.478 158.798L147.74 158.06L152.729 153.07L153.468 153.809ZM145.748 152.924L145.01 152.186L148.427 148.769L149.166 149.507L148.674 149.999C149.339 149.89 149.931 150.095 150.451 150.614C150.92 151.083 151.148 151.657 151.134 152.336C151.116 153.02 150.856 153.612 150.355 154.114C149.849 154.619 149.257 154.879 148.578 154.893C147.899 154.906 147.325 154.679 146.855 154.209C146.336 153.69 146.129 153.1 146.233 152.439L145.748 152.924ZM150.095 152.282C150.095 151.872 149.94 151.512 149.63 151.202C149.321 150.892 148.961 150.737 148.551 150.737C148.136 150.742 147.771 150.901 147.457 151.215C147.143 151.53 146.985 151.892 146.985 152.302C146.981 152.717 147.133 153.079 147.443 153.389C147.753 153.699 148.115 153.852 148.53 153.847C148.94 153.847 149.302 153.69 149.617 153.375C149.931 153.061 150.091 152.696 150.095 152.282ZM142.263 149.617C141.871 149.225 141.68 148.783 141.689 148.291C141.698 147.799 141.921 147.334 142.359 146.897L144.457 144.798L145.195 145.536L143.172 147.56C142.917 147.815 142.789 148.079 142.789 148.352C142.789 148.626 142.908 148.881 143.145 149.118C143.405 149.378 143.696 149.505 144.02 149.501C144.339 149.501 144.664 149.334 144.997 149.002L146.829 147.17L147.567 147.908L144.15 151.326L143.411 150.587L143.849 150.15C143.275 150.278 142.746 150.1 142.263 149.617ZM142.138 142.302C142.653 142.816 142.91 143.42 142.91 144.113C142.906 144.801 142.651 145.398 142.145 145.904C141.635 146.414 141.038 146.669 140.354 146.669C139.662 146.669 139.058 146.412 138.543 145.897C138.21 145.564 137.987 145.181 137.873 144.748C137.759 144.316 137.768 143.896 137.9 143.491L138.905 143.757C138.819 143.999 138.81 144.245 138.878 144.496C138.937 144.746 139.069 144.974 139.274 145.179C139.575 145.48 139.93 145.63 140.341 145.63C140.746 145.626 141.102 145.471 141.407 145.165C141.712 144.86 141.867 144.505 141.872 144.099C141.872 143.689 141.721 143.334 141.42 143.033C141.22 142.832 140.992 142.7 140.737 142.636C140.477 142.568 140.227 142.573 139.985 142.65L139.712 141.652C140.131 141.525 140.557 141.518 140.99 141.632C141.423 141.746 141.806 141.969 142.138 142.302ZM138.056 141.186C138.261 140.871 138.336 140.546 138.282 140.208C138.222 139.876 138.051 139.568 137.769 139.286C137.377 138.894 136.942 138.741 136.463 138.828L136.211 137.864C137.044 137.704 137.792 137.955 138.452 138.616C139.008 139.172 139.289 139.789 139.293 140.468C139.293 141.152 139.033 141.753 138.514 142.272C138.004 142.783 137.409 143.04 136.73 143.045C136.046 143.054 135.44 142.794 134.912 142.266C134.411 141.764 134.176 141.179 134.208 140.509C134.235 139.835 134.499 139.247 135.001 138.746C135.078 138.668 135.19 138.575 135.336 138.465L138.056 141.186ZM137.461 141.794L135.452 139.785C135.224 140.113 135.131 140.438 135.172 140.762C135.208 141.081 135.347 141.361 135.589 141.603C135.862 141.876 136.165 142.029 136.498 142.061C136.83 142.092 137.151 142.004 137.461 141.794Z" fill="black"/>
<path d="M185.895 163.474C186.343 163.026 186.856 162.8 187.434 162.794C188.007 162.794 188.561 163.005 189.098 163.427L189.785 162.74L190.309 163.263L189.629 163.943C190.035 164.411 190.288 164.909 190.387 165.435C190.486 165.961 190.421 166.474 190.191 166.973L188.723 166.583C188.978 165.994 188.926 165.468 188.567 165.005L187.215 166.356L187.223 166.364L187.231 166.388C187.434 166.82 187.582 167.239 187.676 167.645C187.832 168.333 187.637 168.981 187.09 169.59C186.627 170.054 186.111 170.272 185.544 170.246C184.95 170.215 184.421 170.004 183.958 169.614L183.278 170.293L182.755 169.77L183.45 169.075C182.831 168.278 182.698 167.411 183.052 166.474L184.489 166.848C184.302 167.286 184.309 167.674 184.513 168.012L185.817 166.708C185.515 166 185.343 165.521 185.302 165.271C185.192 164.578 185.39 163.979 185.895 163.474ZM186.028 168.512C186.143 168.398 186.208 168.26 186.223 168.098C186.234 167.942 186.195 167.731 186.106 167.466L185.012 168.559C185.398 168.82 185.736 168.804 186.028 168.512ZM186.903 165.622L188.028 164.497C187.627 164.232 187.278 164.247 186.981 164.544C186.747 164.778 186.721 165.138 186.903 165.622ZM181.467 159.843L180.882 159.257L181.881 158.257L182.467 158.843L183.397 157.914L184.483 158.999L183.553 159.929L186.139 162.515L185.139 163.514L179.78 165.233L178.624 164.077L183.975 162.35L182.553 160.929L181.257 162.225L180.171 161.14L181.467 159.843ZM180.928 157.601L179.834 156.507L182.592 154.921L183.412 155.741L180.928 157.601ZM176.66 151.177L180.316 154.833L179.511 155.637L175.723 155.692C174.864 155.718 174.291 155.874 174.004 156.161C173.791 156.374 173.687 156.614 173.692 156.879C173.692 157.14 173.796 157.374 174.004 157.582C174.421 157.999 174.939 158.09 175.559 157.856L175.934 159.293C175.397 159.496 174.872 159.538 174.356 159.418C173.83 159.298 173.369 159.041 172.973 158.645C172.479 158.15 172.21 157.569 172.169 156.903C172.122 156.241 172.361 155.648 172.887 155.122C173.455 154.554 174.338 154.27 175.536 154.27H177.676L175.621 152.216L176.66 151.177ZM174.102 148.4C174.784 149.082 175.063 149.877 174.938 150.783C174.797 151.694 174.3 152.577 173.446 153.431C172.592 154.285 171.712 154.78 170.806 154.915C169.894 155.045 169.098 154.769 168.416 154.087C167.723 153.394 167.447 152.598 167.588 151.697C167.723 150.791 168.218 149.91 169.072 149.056C169.926 148.202 170.808 147.705 171.72 147.564C172.615 147.429 173.41 147.708 174.102 148.4ZM170.142 150.127C169.559 150.71 169.21 151.251 169.095 151.751C168.975 152.246 169.098 152.676 169.462 153.04C169.827 153.405 170.256 153.527 170.751 153.407C171.246 153.288 171.785 152.936 172.368 152.353C172.951 151.77 173.303 151.231 173.423 150.736C173.537 150.246 173.412 149.819 173.048 149.455C172.683 149.09 172.254 148.968 171.759 149.088C171.259 149.202 170.72 149.549 170.142 150.127ZM169.182 143.48C169.864 144.162 170.143 144.956 170.018 145.862C169.877 146.774 169.38 147.656 168.526 148.511C167.672 149.365 166.792 149.859 165.886 149.995C164.974 150.125 164.177 149.849 163.495 149.167C162.803 148.474 162.527 147.677 162.667 146.776C162.803 145.87 163.297 144.99 164.151 144.136C165.005 143.282 165.888 142.785 166.799 142.644C167.695 142.509 168.489 142.787 169.182 143.48ZM165.222 145.206C164.638 145.79 164.289 146.331 164.175 146.831C164.055 147.326 164.177 147.755 164.542 148.12C164.907 148.484 165.336 148.607 165.831 148.487C166.326 148.367 166.865 148.016 167.448 147.433C168.031 146.849 168.383 146.31 168.502 145.816C168.617 145.326 168.492 144.899 168.127 144.535C167.763 144.17 167.333 144.048 166.839 144.167C166.339 144.282 165.8 144.628 165.222 145.206Z" fill="black"/>
<path d="M156.59 138.05L157.238 137.402L158.31 138.475L159.383 137.402L160.03 138.05L158.958 139.122L160.03 140.195L159.383 140.842L158.31 139.77L157.238 140.842L156.59 140.195L157.663 139.122L156.59 138.05ZM153.094 138.349L152.46 137.714L156.902 133.272L157.632 134.002L153.97 137.664L155.119 138.305L154.675 139.104L153.094 138.349ZM151.374 130.701L152.053 130.022L152.561 130.529L153.361 129.73L154.097 130.466L153.297 131.266L155.48 133.449L154.801 134.128L150.308 135.562L149.514 134.769L154.008 133.335L152.618 131.945L151.463 133.1L150.727 132.364L151.882 131.209L151.374 130.701ZM148.18 130.121C148.569 130.121 148.912 130.27 149.208 130.566C149.504 130.862 149.654 131.207 149.659 131.6C149.659 131.998 149.517 132.339 149.233 132.622C148.95 132.906 148.611 133.045 148.218 133.041C147.82 133.041 147.473 132.893 147.177 132.597C146.881 132.301 146.733 131.958 146.733 131.569C146.729 131.175 146.87 130.834 147.158 130.547C147.442 130.263 147.782 130.121 148.18 130.121ZM148.656 131.131C148.52 130.995 148.366 130.93 148.193 130.934C148.019 130.938 147.869 131.004 147.742 131.131C147.611 131.262 147.543 131.414 147.539 131.588C147.535 131.761 147.6 131.916 147.736 132.051C147.867 132.182 148.019 132.246 148.193 132.241C148.366 132.237 148.518 132.169 148.65 132.038C148.776 131.911 148.842 131.761 148.846 131.588C148.85 131.414 148.787 131.262 148.656 131.131ZM151.715 129.392L145.533 129.722L145.387 129.182L151.575 128.846L151.715 129.392ZM149.747 125.964C150.044 126.261 150.194 126.605 150.198 126.999C150.198 127.397 150.056 127.737 149.773 128.021C149.489 128.304 149.151 128.444 148.757 128.44C148.36 128.44 148.013 128.292 147.717 127.995C147.425 127.703 147.279 127.359 147.279 126.961C147.274 126.567 147.414 126.229 147.697 125.945C147.981 125.662 148.322 125.52 148.719 125.52C149.113 125.524 149.456 125.672 149.747 125.964ZM149.195 126.529C149.06 126.394 148.905 126.328 148.732 126.332C148.559 126.337 148.408 126.402 148.281 126.529C148.15 126.66 148.083 126.813 148.078 126.986C148.074 127.16 148.14 127.314 148.275 127.45C148.406 127.581 148.559 127.644 148.732 127.64C148.905 127.636 149.058 127.568 149.189 127.437C149.316 127.31 149.381 127.16 149.386 126.986C149.39 126.813 149.326 126.66 149.195 126.529Z" fill="#00E1F0"/>
<path d="M199.174 157.914L198.784 157.523L201.518 154.789L201.967 155.238L199.713 157.492L200.42 157.886L200.147 158.378L199.174 157.914ZM198.869 152.812C199.314 152.742 199.706 152.876 200.045 153.215C200.383 153.553 200.519 153.946 200.451 154.394C200.381 154.839 200.131 155.277 199.701 155.707C199.271 156.136 198.834 156.386 198.389 156.456C197.941 156.524 197.548 156.389 197.209 156.05C196.871 155.712 196.737 155.32 196.807 154.875C196.875 154.427 197.123 153.988 197.553 153.558C197.983 153.129 198.421 152.88 198.869 152.812ZM199.607 153.652C199.404 153.449 199.165 153.379 198.889 153.441C198.613 153.504 198.317 153.692 198.002 154.008C197.687 154.323 197.498 154.618 197.436 154.894C197.373 155.17 197.444 155.41 197.647 155.613C197.847 155.813 198.087 155.884 198.365 155.824C198.641 155.761 198.937 155.572 199.252 155.257C199.567 154.942 199.756 154.647 199.818 154.371C199.878 154.092 199.808 153.853 199.607 153.652ZM196.792 150.063L197.296 150.567L197.194 152.27L198.096 151.368L198.518 151.79L195.784 154.524L195.362 154.102L197.007 152.457L195.386 152.563L194.87 152.047L196.686 151.95L196.792 150.063Z" fill="#718EBF"/>
<path d="M206.658 143.198L207.076 142.78L207.389 143.092L207.881 142.6L208.334 143.053L207.842 143.545L209.185 144.889L208.767 145.307L206.002 146.19L205.514 145.701L208.279 144.819L207.424 143.963L206.713 144.674L206.26 144.221L206.971 143.51L206.658 143.198ZM205.529 140.249L206.033 140.753L205.931 142.455L206.834 141.553L207.256 141.975L204.522 144.709L204.1 144.287L205.744 142.643L204.123 142.748L203.608 142.233L205.424 142.135L205.529 140.249Z" fill="#718EBF"/>
<path d="M219.431 135.598L219.079 135.95L217.154 135.969C216.69 135.969 216.374 136.054 216.205 136.223C216.072 136.356 216.01 136.499 216.017 136.653C216.02 136.806 216.082 136.944 216.205 137.067C216.434 137.296 216.716 137.352 217.052 137.234L217.209 137.836C216.94 137.932 216.681 137.949 216.431 137.887C216.181 137.824 215.961 137.698 215.771 137.508C215.532 137.268 215.402 136.987 215.381 136.664C215.36 136.341 215.48 136.05 215.74 135.789C216.019 135.511 216.47 135.369 217.095 135.364L218.33 135.364L217.197 134.231L217.63 133.797L219.431 135.598ZM215.512 131.679L216.016 132.183L215.915 133.886L216.817 132.984L217.239 133.406L214.505 136.14L214.083 135.718L215.727 134.074L214.106 134.179L213.591 133.664L215.407 133.566L215.512 131.679Z" fill="#718EBF"/>
<path d="M225.293 122.604C225.739 122.533 226.131 122.668 226.469 123.006C226.808 123.345 226.943 123.738 226.875 124.186C226.805 124.631 226.555 125.068 226.125 125.498C225.696 125.927 225.258 126.177 224.813 126.248C224.365 126.315 223.972 126.18 223.634 125.842C223.295 125.503 223.161 125.111 223.231 124.666C223.299 124.218 223.548 123.779 223.977 123.35C224.407 122.92 224.846 122.671 225.293 122.604ZM226.032 123.443C225.829 123.24 225.589 123.17 225.313 123.233C225.037 123.295 224.741 123.484 224.426 123.799C224.111 124.114 223.923 124.409 223.86 124.685C223.798 124.961 223.868 125.201 224.071 125.404C224.271 125.605 224.511 125.675 224.79 125.615C225.066 125.553 225.361 125.364 225.676 125.049C225.991 124.734 226.18 124.438 226.243 124.162C226.302 123.883 226.232 123.644 226.032 123.443Z" fill="#718EBF"/>
<path d="M221.723 106.543C221.986 106.806 222.15 107.09 222.215 107.394C222.277 107.696 222.241 107.988 222.105 108.269L221.492 108.109C221.69 107.692 221.617 107.312 221.273 106.969C221.104 106.799 220.945 106.706 220.797 106.687C220.643 106.669 220.513 106.713 220.406 106.82C220.294 106.932 220.255 107.062 220.289 107.211C220.321 107.362 220.417 107.588 220.578 107.89C220.669 108.06 220.738 108.201 220.785 108.316C220.832 108.431 220.871 108.563 220.902 108.714C220.928 108.865 220.918 109.009 220.871 109.144C220.824 109.279 220.74 109.408 220.617 109.531C220.375 109.773 220.098 109.878 219.785 109.847C219.47 109.818 219.192 109.683 218.95 109.441C218.731 109.222 218.593 108.977 218.536 108.707C218.478 108.436 218.499 108.162 218.598 107.886L219.196 108.046C219.055 108.416 219.119 108.735 219.387 109.003C219.517 109.134 219.653 109.206 219.793 109.222C219.931 109.24 220.052 109.197 220.156 109.093C220.258 108.992 220.3 108.872 220.281 108.734C220.258 108.596 220.175 108.39 220.031 108.117C219.961 107.979 219.912 107.877 219.883 107.812C219.849 107.747 219.808 107.653 219.758 107.531C219.706 107.406 219.676 107.303 219.668 107.222C219.66 107.142 219.659 107.049 219.664 106.945C219.667 106.838 219.693 106.739 219.742 106.648C219.792 106.557 219.861 106.467 219.949 106.379C220.197 106.131 220.483 106.025 220.809 106.058C221.129 106.092 221.434 106.254 221.723 106.543Z" fill="#718EBF"/>
<path d="M217.647 121.356C216.838 122.165 215.526 122.165 214.717 121.356L207.882 114.521C207.073 113.712 207.073 112.401 207.882 111.592L212.276 107.198L222.04 116.962L217.647 121.356Z" fill="#E8F2FF"/>
<path d="M206.095 96.4845L208.829 93.7505L209.278 94.1996L207.329 96.1486L209.536 95.6057L209.59 95.6604L209.044 97.871L210.996 95.9182L211.446 96.3673L208.712 99.1013L208.227 98.617L208.77 96.4259L206.575 96.9649L206.095 96.4845Z" fill="#718EBF"/>
<path d="M203 112.568C202.191 113.377 200.88 113.377 200.071 112.568L193.236 105.733C192.427 104.924 192.427 103.613 193.236 102.804L200.559 95.4809L210.323 105.245L203 112.568Z" fill="#E8F2FF"/>
<path d="M194.91 85.2989L195.34 84.8693L196.109 85.6387L198.413 83.3343L198.862 83.7835L196.558 86.0879L197.331 86.8612L196.902 87.2908L194.91 85.2989Z" fill="#718EBF"/>
<path d="M179.566 112.568C178.757 113.377 177.445 113.377 176.636 112.568L169.801 105.733C168.993 104.924 168.993 103.612 169.801 102.804L188.842 83.7633L198.606 93.5276L179.566 112.568Z" fill="#E8F2FF"/>
<path d="M187.938 72.8591L185.977 76.3665L185.505 75.8939L187.067 73.1833L184.31 74.6987L183.896 74.2847L185.415 71.5312L182.704 73.0935L182.232 72.6209L185.739 70.6602L186.258 71.1797L184.841 73.7536L187.418 72.3397L187.938 72.8591Z" fill="#718EBF"/>
<path d="M173.219 95.4804C172.41 96.2893 171.099 96.2893 170.29 95.4804L163.455 88.6455C162.646 87.8366 162.646 86.5251 163.455 85.7162L177.125 72.0463L186.889 81.8105L173.219 95.4804Z" fill="#3734A9"/>
<path d="M171.476 61.8653L171.906 61.4357L172.675 62.2051L174.979 59.9007L175.429 60.3499L173.124 62.6543L173.897 63.4276L173.468 63.8572L171.476 61.8653Z" fill="#718EBF"/>
<path d="M147.832 97.4338C147.023 98.2427 145.712 98.2427 144.903 97.4338L138.068 90.5988C137.259 89.7899 137.259 88.4785 138.068 87.6696L165.408 60.3297L175.172 70.0939L147.832 97.4338Z" fill="#3734A9"/>
<path d="M159.832 49.3615L160.984 50.5137L161.75 49.7482L160.637 48.6351L161.066 48.2054L162.18 49.3186L163.289 48.2093L163.738 48.6585L161.004 51.3925L159.403 49.7911L159.832 49.3615Z" fill="#718EBF"/>
<path d="M159.061 62.77C158.252 63.5789 156.941 63.5789 156.132 62.77L149.297 55.935C148.488 55.1261 148.488 53.8146 149.297 53.0057L153.691 48.6118L163.455 58.3761L159.061 62.77Z" fill="#E8F2FF"/>
<path d="M151.42 36.2398C151.683 36.5028 151.847 36.7866 151.912 37.0913C151.974 37.3933 151.938 37.6849 151.803 37.9661L151.189 37.806C151.387 37.3894 151.314 37.0092 150.971 36.6655C150.801 36.4963 150.643 36.4026 150.494 36.3843C150.341 36.3661 150.21 36.4104 150.104 36.5171C149.992 36.6291 149.953 36.7593 149.986 36.9077C150.018 37.0587 150.114 37.2853 150.275 37.5873C150.367 37.7565 150.436 37.8984 150.482 38.013C150.529 38.1276 150.568 38.2604 150.6 38.4114C150.626 38.5624 150.615 38.7056 150.568 38.841C150.522 38.9764 150.437 39.1053 150.315 39.2277C150.072 39.4698 149.795 39.5753 149.483 39.544C149.168 39.5154 148.889 39.38 148.647 39.1379C148.428 38.9191 148.29 38.6744 148.233 38.4036C148.176 38.1328 148.196 37.8594 148.295 37.5834L148.893 37.7435C148.752 38.1133 148.816 38.4322 149.084 38.7004C149.214 38.8306 149.35 38.9035 149.49 38.9191C149.628 38.9374 149.75 38.8944 149.854 38.7902C149.955 38.6887 149.997 38.5689 149.979 38.4309C149.955 38.2929 149.872 38.0872 149.729 37.8138C149.658 37.6758 149.609 37.5743 149.58 37.5092C149.546 37.4441 149.505 37.3503 149.455 37.228C149.403 37.103 149.373 37.0001 149.365 36.9194C149.358 36.8387 149.356 36.7463 149.362 36.6421C149.364 36.5354 149.39 36.4364 149.44 36.3453C149.489 36.2541 149.558 36.1643 149.647 36.0758C149.894 35.8284 150.18 35.7217 150.506 35.7555C150.826 35.7894 151.131 35.9508 151.42 36.2398Z" fill="#718EBF"/>
<path d="M138.068 60.3296C137.259 61.1384 135.947 61.1384 135.138 60.3296L128.303 53.4946C127.494 52.6857 127.494 51.3742 128.303 50.5653L141.973 36.8954L151.737 46.6596L138.068 60.3296Z" fill="#3734A9"/>
<path d="M139.215 24.0347C139.478 24.2977 139.642 24.5815 139.707 24.8862C139.769 25.1882 139.733 25.4799 139.598 25.7611L138.984 25.6009C139.182 25.1843 139.109 24.8042 138.766 24.4605C138.596 24.2912 138.438 24.1975 138.289 24.1793C138.136 24.161 138.005 24.2053 137.899 24.3121C137.787 24.424 137.748 24.5542 137.781 24.7026C137.813 24.8536 137.909 25.0802 138.07 25.3822C138.162 25.5515 138.231 25.6934 138.277 25.8079C138.324 25.9225 138.363 26.0553 138.395 26.2063C138.421 26.3573 138.41 26.5005 138.363 26.6359C138.317 26.7713 138.232 26.9002 138.11 27.0226C137.867 27.2648 137.59 27.3702 137.278 27.339C136.963 27.3103 136.684 27.1749 136.442 26.9328C136.223 26.7141 136.085 26.4693 136.028 26.1985C135.97 25.9277 135.991 25.6543 136.09 25.3783L136.688 25.5384C136.547 25.9082 136.611 26.2271 136.879 26.4953C137.009 26.6255 137.145 26.6984 137.285 26.7141C137.423 26.7323 137.544 26.6893 137.649 26.5852C137.75 26.4836 137.792 26.3638 137.774 26.2258C137.75 26.0878 137.667 25.8821 137.524 25.6087C137.453 25.4707 137.404 25.3692 137.375 25.3041C137.341 25.239 137.3 25.1453 137.25 25.0229C137.198 24.8979 137.168 24.7951 137.16 24.7143C137.153 24.6336 137.151 24.5412 137.157 24.437C137.159 24.3303 137.185 24.2313 137.235 24.1402C137.284 24.0491 137.353 23.9592 137.442 23.8707C137.689 23.6233 137.975 23.5166 138.301 23.5504C138.621 23.5843 138.926 23.7457 139.215 24.0347Z" fill="#718EBF"/>
<path d="M119.028 55.9358C118.219 56.7447 116.907 56.7447 116.098 55.9358L109.263 49.1008C108.455 48.2919 108.455 46.9804 109.263 46.1715L130.257 25.1784L140.021 34.9426L119.028 55.9358Z" fill="#3734A9"/>
<defs>
<filter id="filter0_dddddd_0_412" x="0.743908" y="2.73292" width="305.405" height="320.109" filterUnits="userSpaceOnUse" color-interpolation-filters="sRGB">
<feFlood flood-opacity="0" result="BackgroundImageFix"/>
<feColorMatrix in="SourceAlpha" type="matrix" values="0 0 0 0 0 0 0 0 0 0 0 0 0 0 0 0 0 0 127 0" result="hardAlpha"/>
<feOffset dy="1.27859"/>
<feGaussianBlur stdDeviation="1.0868"/>
<feColorMatrix type="matrix" values="0 0 0 0 0 0 0 0 0 0 0 0 0 0 0 0 0 0 0.01 0"/>
<feBlend mode="normal" in2="BackgroundImageFix" result="effect1_dropShadow_0_412"/>
<feColorMatrix in="SourceAlpha" type="matrix" values="0 0 0 0 0 0 0 0 0 0 0 0 0 0 0 0 0 0 127 0" result="hardAlpha"/>
<feOffset dy="5.62578"/>
<feGaussianBlur stdDeviation="2.25031"/>
<feColorMatrix type="matrix" values="0 0 0 0 0 0 0 0 0 0 0 0 0 0 0 0 0 0 0.0117778 0"/>
<feBlend mode="normal" in2="effect1_dropShadow_0_412" result="effect2_dropShadow_0_412"/>
<feColorMatrix in="SourceAlpha" type="matrix" values="0 0 0 0 0 0 0 0 0 0 0 0 0 0 0 0 0 0 127 0" result="hardAlpha"/>
<feOffset dy="13.8087"/>
<feGaussianBlur stdDeviation="4.48783"/>
<feColorMatrix type="matrix" values="0 0 0 0 0 0 0 0 0 0 0 0 0 0 0 0 0 0 0.015 0"/>
<feBlend mode="normal" in2="effect2_dropShadow_0_412" result="effect3_dropShadow_0_412"/>
<feColorMatrix in="SourceAlpha" type="matrix" values="0 0 0 0 0 0 0 0 0 0 0 0 0 0 0 0 0 0 127 0" result="hardAlpha"/>
<feOffset dy="26.5946"/>
<feGaussianBlur stdDeviation="8.79667"/>
<feColorMatrix type="matrix" values="0 0 0 0 0 0 0 0 0 0 0 0 0 0 0 0 0 0 0.0182222 0"/>
<feBlend mode="normal" in2="effect3_dropShadow_0_412" result="effect4_dropShadow_0_412"/>
<feColorMatrix in="SourceAlpha" type="matrix" values="0 0 0 0 0 0 0 0 0 0 0 0 0 0 0 0 0 0 127 0" result="hardAlpha"/>
<feOffset dy="44.7505"/>
<feGaussianBlur stdDeviation="16.1741"/>
<feColorMatrix type="matrix" values="0 0 0 0 0 0 0 0 0 0 0 0 0 0 0 0 0 0 0.0227778 0"/>
<feBlend mode="normal" in2="effect4_dropShadow_0_412" result="effect5_dropShadow_0_412"/>
<feColorMatrix in="SourceAlpha" type="matrix" values="0 0 0 0 0 0 0 0 0 0 0 0 0 0 0 0 0 0 127 0" result="hardAlpha"/>
<feOffset dy="69.0436"/>
<feGaussianBlur stdDeviation="27.6174"/>
<feColorMatrix type="matrix" values="0 0 0 0 0 0 0 0 0 0 0 0 0 0 0 0 0 0 0.03 0"/>
<feBlend mode="normal" in2="effect5_dropShadow_0_412" result="effect6_dropShadow_0_412"/>
<feBlend mode="normal" in="SourceGraphic" in2="effect6_dropShadow_0_412" result="shape"/>
</filter>
</defs>
</svg>
